<?xml version="1.0" encoding="UTF-8"?>
<svg width="256mm" height="256mm" version="1.1" viewBox="0 0 256 256" xmlns="http://www.w3.org/2000/svg" xmlns:cc="http://creativecommons.org/ns#" xmlns:dc="http://purl.org/dc/elements/1.1/" xmlns:rdf="http://www.w3.org/1999/02/22-rdf-syntax-ns#"><metadata><rdf:RDF><cc:Work rdf:about=""><dc:format>image/svg+xml</dc:format><dc:type rdf:resource="http://purl.org/dc/dcmitype/StillImage"/><dc:title/></cc:Work></rdf:RDF></metadata><g transform="translate(58.836 -40.069)" fill="none" stroke-linecap="round" stroke-width="22.295"><path transform="rotate(90)" d="m233.14-3.3176a45.72 45.72 0 0 1-28.224 42.24 45.72 45.72 0 0 1-49.825-9.9109 45.72 45.72 0 0 1-9.9109-49.825 45.72 45.72 0 0 1 42.24-28.224" stroke="#bdc3ca" style="paint-order:stroke fill markers"/><path transform="rotate(135)" d="m83.468-128.5a45.736 45.736 0 0 1-57.022 7.5108 45.736 45.736 0 0 1-19.279-54.187" stroke="#bdc3ca" style="paint-order:stroke fill markers"/><path d="m115.09 187.92a33.69 33.69 0 0 1 39.356-21.513 33.69 33.69 0 0 1 25.853 36.652 33.69 33.69 0 0 1-33.471 29.856" stroke="#56afdb" style="paint-order:stroke fill markers"/><path d="m146.83 232.91h-101.3" stroke="#56afdb"/></g></svg>
